
<svg width="637" height="752" viewBox="0 0 637 752" fill="none" xmlns="http://www.w3.org/2000/svg">
<rect x="25.8596" y="20.285" width="610.406" height="731.269" rx="53" fill="url(#paint0_linear_17_43)"/>
<path fill-rule="evenodd" clip-rule="evenodd" d="M61 0C27.3106 0 0 27.3106 0 61V691C0 724.689 27.3106 752 61 752H575C608.689 752 636 724.689 636 691V61C636 27.3106 608.689 0 575 0H61ZM274.723 671V476C277.39 476 281.557 476.167 287.223 476.5C293.223 476.833 298.89 477.167 304.223 477.5C309.557 477.833 315.723 478.167 322.723 478.5H343.223H345.723C352.057 498.833 356.89 524.167 360.223 554.5C363.89 584.5 366.723 610.333 368.723 632C370.723 653.333 373.557 666.333 377.223 671H561.723C554.723 662 548.223 648.5 542.223 630.5C536.557 612.5 531.39 594.333 526.723 576C522.39 557.333 517.223 539 511.223 521C505.223 502.667 496.723 486.833 485.723 473.5C475.057 460.167 462.223 451.667 447.223 448C474.89 430.333 497.057 406.5 513.723 376.5C530.723 346.5 539.223 312.167 539.223 273.5C539.223 208.167 521.39 159.667 485.723 128C450.39 96.3334 396.723 80.5 324.723 80.5C304.057 80.5 277.89 81.3334 246.223 83C214.557 84.3333 190.723 85 174.723 85H108.723V671H274.723ZM290.723 383H274.723V177H284.223C312.557 177 334.223 182.833 349.223 194.5C364.557 205.833 372.223 226 372.223 255V294.5C372.223 307.833 371.223 319.5 369.223 329.5C367.223 339.5 364.223 347.667 360.223 354C356.223 360.333 351.89 365.5 347.223 369.5C342.89 373.5 337.223 376.5 330.223 378.5C323.557 380.167 317.39 381.333 311.723 382C306.057 382.667 299.057 383 290.723 383Z" fill="black"/>
<defs>
<linearGradient id="paint0_linear_17_43" x1="312.5" y1="201.5" x2="290.126" y2="751.985" gradientUnits="userSpaceOnUse">
<stop stop-color="#FF48E2"/>
<stop offset="0.409547" stop-color="#00F0FF"/>
<stop offset="0.92" stop-color="#EBFF00"/>
</linearGradient>
</defs>
</svg>
