<svg width="108" height="140" viewBox="0 0 108 140" fill="none" xmlns="http://www.w3.org/2000/svg">
<g clip-path="url(#clip0_2_43)">
<rect width="108" height="140" rx="12" fill="white"/>
<rect width="108" height="140" rx="12" fill="#2F2B2B"/>
<path d="M31.0118 44.36V61H16.8464V10.9947H22.4784C23.8438 10.9947 25.8775 10.9378 28.5798 10.824C31.282 10.6818 33.5149 10.6107 35.2784 10.6107C41.4224 10.6107 46.002 11.9618 49.0171 14.664C52.0606 17.3662 53.5824 21.5049 53.5824 27.08C53.5824 30.3796 52.8571 33.3093 51.4064 35.8693C49.9842 38.4293 48.0926 40.4631 45.7318 41.9707C47.0118 42.2836 48.1069 43.0089 49.0171 44.1467C49.9558 45.2844 50.6811 46.6356 51.1931 48.2C51.7051 49.736 52.146 51.3004 52.5158 52.8933C52.914 54.4578 53.3549 56.008 53.8384 57.544C54.3504 59.08 54.9051 60.232 55.5024 61H39.7584C39.4455 60.6018 39.2038 59.4924 39.0331 57.672C38.8624 55.8231 38.6206 53.6187 38.3078 51.0587C38.0233 48.4702 37.6109 46.3084 37.0704 44.5733C37.0135 44.5733 36.9424 44.5733 36.8571 44.5733C36.3166 44.5733 35.7335 44.5733 35.1078 44.5733C34.5104 44.5449 33.9842 44.5164 33.5291 44.488C33.074 44.4596 32.5904 44.4311 32.0784 44.4027C31.5949 44.3742 31.2393 44.36 31.0118 44.36ZM31.0118 36.424H32.3771C33.0882 36.424 33.6855 36.3956 34.1691 36.3387C34.6526 36.2818 35.1789 36.1822 35.7478 36.04C36.3451 35.8693 36.8286 35.6133 37.1984 35.272C37.5966 34.9307 37.9664 34.4898 38.3078 33.9493C38.6491 33.4089 38.9051 32.712 39.0758 31.8587C39.2464 31.0053 39.3318 30.0098 39.3318 28.872V25.5013C39.3318 23.0267 38.6775 21.3058 37.3691 20.3387C36.0891 19.3431 34.2402 18.8453 31.8224 18.8453H31.0118V36.424Z" fill="#479B9B"/>
<path d="M88.4751 61H58.2244V10.9947H87.8351L86.9818 21.064L72.3471 20.6373V30.28H83.8671V40.264L72.3471 39.4107V50.76L88.4751 50.3333V61Z" fill="#D92617"/>
<path d="M31.0971 125H16.9744V74.9947H22.6064C24.114 74.9947 26.3895 74.9378 29.4331 74.824C32.4766 74.6818 34.9798 74.6107 36.9424 74.6107C42.4606 74.6107 46.642 76.0756 49.4864 79.0053C52.3309 81.9351 53.7531 86.3298 53.7531 92.1893C53.7531 95.7164 53.2838 98.9307 52.3451 101.832C51.4349 104.705 50.1975 107.066 48.6331 108.915C47.0686 110.764 45.2909 112.186 43.2998 113.181C41.3086 114.177 39.2038 114.675 36.9851 114.675C36.7006 114.675 36.402 114.675 36.0891 114.675C35.8046 114.675 35.5344 114.675 35.2784 114.675C35.0509 114.646 34.7664 114.632 34.4251 114.632C34.1122 114.604 33.8562 114.589 33.6571 114.589C33.4864 114.561 33.2304 114.547 32.8891 114.547C32.5762 114.518 32.3629 114.504 32.2491 114.504C32.1353 114.504 31.922 114.49 31.6091 114.461C31.2962 114.433 31.1255 114.419 31.0971 114.419V125ZM39.7584 90.312C39.7584 88.2071 39.1895 86.5004 38.0518 85.192C36.914 83.8836 35.2784 83.2293 33.1451 83.2293H31.0971V105.416H32.6758C34.9229 105.416 36.658 104.662 37.8811 103.155C39.1326 101.647 39.7584 99.4711 39.7584 96.6267V90.312Z" fill="#D1D433"/>
<path d="M71.4384 105.672C71.4384 110.394 71.794 113.679 72.5051 115.528C73.2446 117.377 74.5246 118.301 76.3451 118.301C77.682 118.301 78.6918 117.974 79.3744 117.32C80.0571 116.637 80.5691 115.258 80.9104 113.181C81.2802 111.076 81.4651 107.933 81.4651 103.752V93.4693C81.4651 89.4018 81.0669 86.3724 80.2704 84.3813C79.474 82.3902 78.1655 81.3947 76.3451 81.3947C74.5246 81.3947 73.2446 82.376 72.5051 84.3387C71.794 86.2729 71.4384 89.8142 71.4384 94.9627V105.672ZM75.4491 125.896C73.0882 125.896 70.9549 125.683 69.0491 125.256C67.1718 124.829 65.5504 124.232 64.1851 123.464C62.8198 122.696 61.6251 121.715 60.6011 120.52C59.6055 119.325 58.7949 118.045 58.1691 116.68C57.5718 115.315 57.0882 113.722 56.7184 111.901C56.3486 110.052 56.0926 108.218 55.9504 106.397C55.8082 104.548 55.7371 102.472 55.7371 100.168C55.7371 96.7547 55.9078 93.7822 56.2491 91.2507C56.6189 88.7191 57.2873 86.344 58.2544 84.1253C59.2215 81.8782 60.5015 80.0578 62.0944 78.664C63.7158 77.2702 65.7922 76.1751 68.3238 75.3787C70.8838 74.5822 73.8989 74.184 77.3691 74.184C79.7584 74.184 81.906 74.4116 83.8118 74.8667C85.7175 75.2933 87.3531 75.8907 88.7184 76.6587C90.0838 77.4267 91.2642 78.4222 92.2598 79.6453C93.2838 80.8684 94.0944 82.1769 94.6918 83.5707C95.3175 84.936 95.8153 86.5431 96.1851 88.392C96.5549 90.2409 96.8109 92.0756 96.9531 93.896C97.0953 95.7164 97.1664 97.7787 97.1664 100.083C97.1664 103.496 96.9815 106.468 96.6118 109C96.242 111.532 95.5735 113.907 94.6064 116.125C93.6393 118.316 92.3451 120.108 90.7238 121.501C89.1024 122.867 87.0118 123.948 84.4518 124.744C81.9202 125.512 78.9193 125.896 75.4491 125.896Z" fill="#26AC17"/>
</g>
<defs>
<clipPath id="clip0_2_43">
<rect width="108" height="140" rx="12" fill="white"/>
</clipPath>
</defs>
</svg>
